<?xml version="1.0" encoding="UTF-8"?>
<svg id="Layer_1" xmlns="http://www.w3.org/2000/svg" viewBox="0 0 260.71 75.37">
  <g>
    <path fill="currentColor" d="M37.72,26.35l-.18-.38L26.62,2.78h-1.07l-10.56,23.18-.43.95-.91,2.01.91,1.35,2.42,3.57.36.53,1.64,2.42.18.27,1.59,2.35,1.19-2.62,1.1-2.42h6.48l1.14,2.42,1.15,2.45,1.57-2.36.06-.09,1.61-2.42.22-.33,2.42-3.64,1.12-1.68-1.12-2.37ZM23.12,28.39l1.1-2.42,1.98-4.35,2.05,4.35,1.14,2.42h-6.28Z"/>
    <polygon fill="currentColor" points="51.94 67.54 43.68 67.54 40.2 43.42 26.87 63.72 25.41 63.72 11.81 43.25 8.21 67.54 0 67.54 6.69 24.98 7.87 24.98 10.7 29.16 12.3 31.51 14.39 34.59 15.88 36.79 17.82 39.65 19.41 42 26.14 51.91 32.87 41.8 34.44 39.45 36.21 36.79 37.56 34.77 39.88 31.28 41.45 28.92 44.07 24.98 45.31 24.98 51.94 67.54"/>
  </g>
  <g>
    <path fill="currentColor" d="M80.6,18.98c0,8.02-5.87,13.65-15.07,13.65-3.51,0-6.88-.59-8.44-1.18V6.03h9.17c8.68,0,14.34,5.52,14.34,12.95ZM74.49,19.12c0-4.24-2.92-7.74-8.13-7.74h-3.44v15.63c1.08.14,2.29.24,3.4.24,5.35,0,8.16-3.54,8.16-8.13Z"/>
    <path fill="currentColor" d="M110.47,32.07l-4.03-7.5c-.59.03-1.22.07-1.88.07-1.25,0-2.33-.1-3.3-.28v7.71h-6.15V6.03h10.7c6.81,0,10.73,3.33,10.73,8.93,0,3.72-1.63,6.43-4.45,7.99l4.97,9.13h-6.6ZM110.33,15.27c0-2.43-1.39-3.92-5.1-3.92h-3.96v8.09c.94.17,1.98.24,3.13.24,4.1,0,5.94-1.53,5.94-4.41Z"/>
    <path fill="currentColor" d="M132.01,6.03h6.04v26.05h-6.04V6.03Z"/>
    <path fill="currentColor" d="M168.61,27.98h-9.2l-1.63,4.1h-6.6l12.47-26.29h.69l12.47,26.29h-6.56l-1.63-4.1ZM164,16.31l-2.88,7.22h5.8l-2.92-7.22Z"/>
    <path fill="currentColor" d="M205.19,27.98h-9.2l-1.63,4.1h-6.6l12.47-26.29h.69l12.47,26.29h-6.56l-1.63-4.1ZM200.57,16.31l-2.88,7.22h5.8l-2.92-7.22Z"/>
    <path fill="currentColor" d="M250.96,6.03v26.26h-.66l-17.4-14.83v14.62h-5.94V5.82h.66l17.36,14.72V6.03h5.97Z"/>
    <path fill="currentColor" d="M60.93,57.24v-13.65h5.56v13.69c0,3.3,1.97,5.56,5.27,5.56s5.3-2.25,5.3-5.56v-13.69h5.56v13.65c0,6.54-4.29,10.67-10.86,10.67s-10.83-4.13-10.83-10.67Z"/>
    <path fill="currentColor" d="M89.74,66.45v-4.83c1.05.79,2.7,1.59,4.83,1.59,2.95,0,4.25-1.49,4.25-2.95,0-1.21-.67-2.22-2.41-3.08l-2.38-1.17c-2.6-1.33-4.32-3.11-4.32-5.91,0-3.97,3.52-6.86,9.05-6.86,2.06,0,3.65.38,4.48.86v4.83c-.86-.57-2.35-1.08-3.91-1.08-2.41,0-3.84.95-3.84,2.44,0,.98.6,1.65,2.06,2.35l2.29,1.14c3.11,1.52,4.54,3.65,4.54,6.51,0,4.13-2.95,7.62-9.24,7.62-2.22,0-4.19-.6-5.4-1.46Z"/>
    <path fill="currentColor" d="M110.73,66.45v-4.83c1.05.79,2.7,1.59,4.83,1.59,2.95,0,4.25-1.49,4.25-2.95,0-1.21-.67-2.22-2.41-3.08l-2.38-1.17c-2.6-1.33-4.32-3.11-4.32-5.91,0-3.97,3.52-6.86,9.05-6.86,2.06,0,3.65.38,4.48.86v4.83c-.86-.57-2.35-1.08-3.91-1.08-2.41,0-3.84.95-3.84,2.44,0,.98.6,1.65,2.06,2.35l2.29,1.14c3.11,1.52,4.54,3.65,4.54,6.51,0,4.13-2.95,7.62-9.24,7.62-2.22,0-4.19-.6-5.4-1.46Z"/>
    <path fill="currentColor" d="M148.1,67.02c-1.17.63-2.98.86-4.48.86-7.14,0-12.51-5.27-12.51-12.32s5.37-12.32,12.54-12.32c1.49,0,3.27.25,4.45.83v5.18c-1.17-.6-2.51-.89-4.13-.89-4.19,0-7.3,2.95-7.3,7.21s3.11,7.18,7.3,7.18c1.62,0,2.95-.25,4.13-.83v5.11Z"/>
    <path fill="currentColor" d="M178.27,43.59v23.81h-5.56v-9.91h-10.7v9.91h-5.56v-23.81h5.56v8.86h10.7v-8.86h5.56Z"/>
    <path fill="currentColor" d="M185.13,55.56c0-7.02,5.27-12.32,12.42-12.32s12.48,5.3,12.48,12.32-5.24,12.35-12.48,12.35-12.42-5.33-12.42-12.35ZM204.5,55.56c0-4.16-2.89-7.27-6.95-7.27s-6.89,3.11-6.89,7.27,2.86,7.24,6.89,7.24,6.95-3.14,6.95-7.24Z"/>
    <path fill="currentColor"
d="M215.49,55.56c0-7.02,5.27-12.32,12.42-12.32s12.48,5.3,12.48,12.32-5.24,12.35-12.48,12.35-12.42-5.33-12.42-12.35ZM234.86,55.56c0-4.16-2.89-7.27-6.95-7.27s-6.89,3.11-6.89,7.27,2.86,7.24,6.89,7.24,6.95-3.14,6.95-7.24Z"/>
    <path fill="currentColor" d="M249.27,48.41h-5.3v-4.83h16.13v4.83h-5.27v18.99h-5.56v-18.99Z"/>
  </g>
</svg>
