<?xml version="1.0" encoding="utf-8"?>
<svg xmlns="http://www.w3.org/2000/svg" width="2500" height="676" viewBox="-0.122 189.926 456.637 115.011">
  <path d="M 196.29 241.359 L 169.539 241.359 C 168.849 241.359 168.289 241.917 168.289 242.609 L 168.289 255.687 C 168.289 256.377 168.849 256.937 169.539 256.94 L 179.975 256.94 L 179.975 273.188 C 179.975 273.188 177.632 273.988 171.153 273.988 C 163.51 273.988 152.834 271.195 152.834 247.717 C 152.834 224.235 163.951 221.145 174.389 221.145 C 183.424 221.145 187.316 222.736 189.793 223.501 C 190.571 223.74 191.291 222.966 191.291 222.274 L 194.275 209.639 C 194.275 209.315 194.165 208.925 193.797 208.662 C 192.791 207.945 186.655 204.511 171.153 204.511 C 153.295 204.511 134.977 212.109 134.977 248.632 C 134.977 285.158 155.95 290.601 173.623 290.601 C 188.257 290.601 197.134 284.347 197.134 284.347 C 197.5 284.144 197.539 283.634 197.539 283.398 L 197.539 242.608 C 197.539 241.919 196.98 241.359 196.29 241.359 M 334.153 208.887 C 334.155 208.555 334.026 208.236 333.793 208.001 C 333.56 207.764 333.243 207.632 332.911 207.63 L 317.848 207.63 C 317.516 207.632 317.198 207.764 316.964 208.001 C 316.73 208.236 316.599 208.555 316.601 208.887 L 316.605 237.996 L 293.126 237.996 L 293.126 208.887 C 293.129 208.555 292.999 208.236 292.766 208.001 C 292.533 207.764 292.215 207.632 291.884 207.63 L 276.822 207.63 C 276.131 207.634 275.574 208.197 275.578 208.887 L 275.578 287.704 C 275.578 288.399 276.136 288.964 276.822 288.964 L 291.884 288.964 C 292.572 288.964 293.126 288.398 293.126 287.704 L 293.126 253.99 L 316.605 253.99 L 316.563 287.704 C 316.563 288.399 317.123 288.964 317.812 288.964 L 332.91 288.964 C 333.6 288.964 334.151 288.398 334.153 287.704 L 334.153 208.887 M 224.713 219.231 C 224.713 213.805 220.365 209.423 215 209.423 C 209.641 209.423 205.289 213.805 205.289 219.231 C 205.289 224.647 209.641 229.042 215 229.042 C 220.365 229.042 224.713 224.647 224.713 219.231 M 223.636 271.079 L 223.636 234.697 C 223.638 234.005 223.08 233.444 222.39 233.44 L 207.375 233.44 C 206.686 233.44 206.07 234.151 206.07 234.843 L 206.07 286.966 C 206.07 288.498 207.024 288.954 208.26 288.954 L 221.788 288.954 C 223.272 288.954 223.636 288.225 223.636 286.942 L 223.636 271.079 M 391.395 233.559 L 376.448 233.559 C 375.763 233.559 375.205 234.124 375.205 234.819 L 375.205 273.466 C 375.205 273.466 371.407 276.244 366.018 276.244 C 360.629 276.244 359.199 273.799 359.199 268.522 L 359.199 234.819 C 359.199 234.124 358.642 233.559 357.956 233.559 L 342.786 233.559 C 342.102 233.559 341.54 234.124 341.54 234.819 L 341.54 271.074 C 341.54 286.748 350.276 290.582 362.295 290.582 C 372.153 290.582 380.102 285.135 380.102 285.135 C 380.102 285.135 380.48 288.006 380.651 288.347 C 380.823 288.686 381.269 289.028 381.751 289.028 L 391.402 288.985 C 392.087 288.985 392.648 288.42 392.648 287.727 L 392.643 234.82 C 392.643 234.124 392.084 233.559 391.395 233.559 M 426.352 276.196 C 421.167 276.039 417.651 273.686 417.651 273.686 L 417.651 248.726 C 417.651 248.726 421.12 246.6 425.376 246.22 C 430.758 245.738 435.945 247.364 435.945 260.203 C 435.945 273.743 433.605 276.415 426.352 276.196 Z M 432.247 231.789 C 423.758 231.789 417.983 235.576 417.983 235.576 L 417.983 208.888 C 417.983 208.192 417.427 207.63 416.741 207.63 L 401.636 207.63 C 401.304 207.632 400.986 207.764 400.753 208.001 C 400.519 208.236 400.389 208.555 400.391 208.888 L 400.391 287.704 C 400.391 288.399 400.949 288.964 401.638 288.964 L 412.118 288.964 C 412.59 288.964 412.947 288.722 413.211 288.295 C 413.471 287.873 413.847 284.661 413.847 284.661 C 413.847 284.661 420.024 290.515 431.716 290.515 C 445.443 290.515 453.315 283.553 453.315 259.259 C 453.315 234.964 440.742 231.789 432.247 231.789 M 266.926 233.434 L 255.627 233.434 L 255.61 218.507 C 255.61 217.942 255.319 217.66 254.666 217.66 L 239.269 217.66 C 238.67 217.66 238.349 217.923 238.349 218.498 L 238.349 233.923 C 238.349 233.923 230.633 235.785 230.111 235.936 C 229.577 236.091 229.209 236.582 229.209 237.138 L 229.209 246.83 C 229.209 247.528 229.766 248.088 230.455 248.088 L 238.349 248.088 L 238.349 271.407 C 238.349 288.727 250.498 290.429 258.696 290.429 C 262.442 290.429 266.923 289.227 267.663 288.953 C 268.11 288.789 268.37 288.325 268.37 287.822 L 268.383 277.16 C 268.383 276.463 267.796 275.903 267.134 275.903 C 266.476 275.903 264.791 276.17 263.057 276.17 C 257.508 276.17 255.627 273.589 255.627 270.25 L 255.627 248.088 L 266.926 248.088 C 267.615 248.088 268.172 247.527 268.172 246.829 L 268.172 234.688 C 268.174 234.356 268.043 234.037 267.809 233.803 C 267.576 233.567 267.258 233.434 266.926 233.434" fill="currentColor"/>
  <path clip-rule="evenodd" d="M 60.766 190.511 C 28.969 190.511 3.188 216.647 3.188 248.884 C 3.188 274.678 19.682 296.559 42.57 304.281 C 45.45 304.814 46.357 303.084 46.357 301.534 C 46.357 300.145 46.386 296.275 46.357 291.399 C 30.34 294.928 27.023 283.709 27.023 283.709 C 24.406 276.969 20.634 275.171 20.634 275.171 C 15.406 271.55 21.026 271.623 21.026 271.623 C 26.803 272.036 29.848 277.638 29.848 277.638 C 34.985 286.555 43.322 283.976 46.602 282.49 C 47.127 278.718 48.618 276.141 50.262 274.682 C 37.477 273.212 24.034 268.201 24.034 245.831 C 24.034 239.458 26.278 234.25 29.96 230.169 C 29.365 228.696 27.387 222.756 30.524 214.718 C 30.524 214.718 35.36 213.147 46.357 220.708 C 51.055 219.409 55.904 218.749 60.775 218.746 C 65.667 218.764 70.591 219.409 75.192 220.708 C 86.188 213.155 91.017 214.718 91.017 214.718 C 94.155 222.756 92.18 228.696 91.588 230.169 C 95.272 234.25 97.507 239.458 97.507 245.831 C 97.507 268.262 84.044 273.197 71.214 274.634 C 73.279 276.44 75.155 279.947 75.155 285.392 L 75.155 301.548 C 75.155 303.113 76.085 304.837 79.008 304.27 C 101.874 296.54 118.353 274.666 118.353 248.884 C 118.353 216.647 92.572 190.511 60.766 190.511 Z" fill-rule="evenodd" style="stroke-width: 1px;" fill="currentColor"/>
</svg>
